<?xml version="1.0" standalone="no"?>
<!DOCTYPE svg PUBLIC "-//W3C//DTD SVG 20010904//EN"
 "http://www.w3.org/TR/2001/REC-SVG-20010904/DTD/svg10.dtd">
<svg version="1.0" xmlns="http://www.w3.org/2000/svg"
 width="512.000000pt" height="512.000000pt" viewBox="0 0 512.000000 512.000000"
 preserveAspectRatio="xMidYMid meet">

<g transform="translate(0.000000,512.000000) scale(0.100000,-0.100000)"
fill="#000000" stroke="none">
<path d="M115 4835 c-17 -16 -25 -35 -25 -60 0 -25 8 -44 25 -60 l24 -25 801
0 801 0 24 25 c25 24 32 65 19 100 -18 45 -15 45 -854 45 l-791 0 -24 -25z"/>
<path d="M2183 4340 c-29 -12 -56 -65 -47 -93 3 -12 16 -32 27 -44 20 -23 24
-23 269 -23 l249 0 24 25 c35 34 33 78 -4 116 l-29 29 -234 -1 c-128 0 -243
-4 -255 -9z"/>
<path d="M490 4003 c-58 -22 -77 -88 -39 -137 l20 -26 635 0 635 0 24 25 c32
31 32 75 1 112 l-24 28 -619 2 c-340 1 -625 -1 -633 -4z"/>
<path d="M925 3493 c-159 -20 -320 -124 -379 -246 -39 -80 -59 -187 -53 -292
8 -148 19 -175 108 -269 43 -46 99 -94 124 -107 l45 -24 0 -297 0 -298 -140 0
c-145 0 -191 -9 -233 -48 -46 -42 -52 -68 -57 -275 l-5 -199 -52 -18 c-190
-67 -310 -269 -276 -466 40 -232 253 -390 480 -354 92 15 162 49 226 109 l54
51 1068 0 1068 0 54 -51 c94 -89 221 -129 345 -109 82 13 196 69 242 120 l36
40 692 0 c731 1 740 1 790 47 49 45 58 82 58 253 0 182 -7 209 -64 255 -42 34
-62 54 -160 168 -131 150 -428 401 -605 511 -153 94 -360 203 -577 302 -273
125 -600 256 -643 257 -70 2 -186 -162 -214 -302 l-12 -63 -58 65 -58 66 85
103 c71 83 86 108 86 135 0 67 -74 105 -128 67 -12 -8 -90 -96 -173 -195 -82
-98 -152 -179 -155 -179 -2 0 -20 7 -40 15 -47 19 -74 20 -400 11 l-281 -8
-54 47 c-227 201 -249 232 -188 276 60 42 73 93 73 274 0 132 -4 173 -22 238
-68 247 -229 377 -482 389 -52 3 -108 3 -125 1z m179 -179 c66 -7 64 -12 -16
-44 -136 -53 -188 -195 -112 -303 42 -58 80 -74 249 -98 83 -12 153 -25 157
-28 4 -4 5 -30 1 -60 l-6 -53 -106 7 c-133 8 -216 8 -357 0 l-111 -7 -66 64
c-65 63 -65 63 -72 132 -14 128 9 225 67 291 63 71 183 118 278 109 19 -2 61
-6 94 -10z m245 -202 c12 -29 21 -62 21 -73 0 -18 -4 -20 -32 -15 -18 3 -72
11 -120 17 -100 14 -118 21 -103 44 12 19 197 96 207 87 4 -4 16 -31 27 -60z
m-121 -621 c53 -49 158 -146 232 -216 89 -84 153 -135 189 -152 l53 -25 318 7
319 7 25 -25 c33 -33 34 -77 2 -114 l-24 -28 -358 -13 c-198 -7 -369 -10 -382
-7 -13 3 -119 94 -235 203 -347 323 -357 333 -357 370 0 46 38 82 85 82 31 0
48 -12 133 -89z m2025 -183 c529 -214 924 -421 1157 -608 101 -80 283 -247
324 -296 l37 -44 -324 0 -324 0 -5 78 c-11 181 -136 318 -376 413 -122 47
-369 119 -531 155 -179 39 -175 37 -182 64 -11 40 -10 156 2 187 13 35 58 113
65 113 3 0 73 -28 157 -62z m-2175 -143 c11 -10 3 -12 -35 -11 -26 1 -60 -2
-75 -7 l-28 -7 0 76 0 77 63 -58 c34 -32 68 -64 75 -70z m1737 -205 c102 -118
185 -220 185 -226 0 -16 -57 -126 -80 -153 l-20 -23 -64 60 c-82 76 -143 105
-286 137 -163 37 -157 34 -123 52 84 43 127 118 128 225 1 67 5 81 29 113 15
20 32 35 36 33 5 -2 93 -100 195 -218z m-1755 15 c19 -10 57 -57 104 -128 85
-129 196 -260 282 -331 32 -27 63 -53 69 -58 5 -4 -86 -8 -203 -8 l-212 0 -16
25 c-56 86 -131 316 -136 419 -3 48 -2 50 37 73 48 27 40 26 75 8z m361 -131
c84 -78 130 -94 261 -94 87 0 146 -10 511 -91 432 -95 474 -109 536 -173 l31
-31 -104 -64 c-99 -60 -105 -62 -128 -47 -33 22 -225 84 -316 103 -48 10 -140
17 -244 18 l-167 3 -83 55 c-144 96 -265 212 -367 351 -71 98 -66 95 70 -30z
m1930 -48 c386 -107 516 -172 574 -290 29 -59 29 -60 9 -216 -5 -37 -2 -51 14
-70 l20 -25 491 -3 492 -3 -3 -127 -3 -127 -640 0 -640 0 3 65 c14 302 -288
522 -574 418 -29 -10 -37 -10 -50 4 -16 15 -14 20 18 65 50 67 92 156 118 243
12 41 23 81 26 88 5 16 4 17 145 -22z m-2544 -87 c19 -68 36 -114 90 -246 4
-10 -38 -13 -191 -13 l-196 0 0 170 0 170 138 0 137 0 22 -81z m2103 -394 c9
-11 8 -20 -8 -42 -31 -44 -62 -109 -70 -148 l-7 -35 -59 66 c-46 51 -56 68
-45 75 8 4 46 28 84 53 78 50 87 52 105 31z m-781 -31 c117 -17 292 -71 361
-111 86 -50 210 -186 210 -230 0 -11 -171 -13 -925 -13 l-925 0 0 78 c0 88
-20 166 -56 223 -13 21 -24 41 -24 44 0 3 219 6 488 6 268 1 516 5 552 9 112
12 208 11 319 -6z m-1596 -31 c48 -19 120 -99 135 -151 28 -93 9 -181 -55
-252 -53 -59 -108 -83 -189 -83 -206 1 -325 242 -200 406 72 94 193 126 309
80z m2832 -12 c178 -94 175 -348 -4 -445 -103 -56 -225 -34 -304 54 -89 99
-91 237 -4 336 84 95 198 115 312 55z"/>
<path d="M373 1085 c-47 -33 -36 -116 18 -139 40 -17 75 -10 99 22 43 54 9
132 -59 132 -20 0 -46 -7 -58 -15z"/>
<path d="M3181 1074 c-26 -34 -27 -74 -1 -106 57 -74 175 -4 140 82 -15 37
-37 50 -84 50 -25 0 -40 -7 -55 -26z"/>
<path d="M31 3303 c-12 -10 -24 -34 -27 -54 -5 -29 -1 -41 19 -65 l25 -29 122
0 c121 0 122 0 146 28 31 37 31 81 -1 112 -23 24 -30 25 -143 25 -99 0 -123
-3 -141 -17z"/>
<path d="M1993 3300 c-30 -27 -37 -56 -22 -91 24 -60 18 -59 591 -59 498 0
524 1 555 19 51 32 53 100 4 138 -12 9 -148 12 -562 13 -529 0 -546 -1 -566
-20z"/>
<path d="M285 395 c-47 -46 -25 -125 37 -140 13 -3 357 -4 765 -3 728 3 743 3
762 23 35 34 37 77 6 113 l-27 32 -759 0 -760 0 -24 -25z"/>
</g>
</svg>
