<?xml version="1.0" standalone="no"?>
<!DOCTYPE svg PUBLIC "-//W3C//DTD SVG 20010904//EN"
 "http://www.w3.org/TR/2001/REC-SVG-20010904/DTD/svg10.dtd">
<svg version="1.0" xmlns="http://www.w3.org/2000/svg"
 width="512.000000pt" height="512.000000pt" viewBox="0 0 512.000000 512.000000"
 preserveAspectRatio="xMidYMid meet">

<g transform="translate(0.000000,512.000000) scale(0.100000,-0.100000)"
fill="#000000" stroke="none">
<path d="M2653 4270 c-58 -12 -112 -42 -155 -87 -21 -22 -97 -151 -179 -303
-78 -146 -143 -266 -144 -268 -1 -1 -33 5 -71 14 -124 28 -608 132 -649 138
-55 9 -148 -17 -204 -57 -74 -53 -99 -107 -199 -435 -51 -165 -92 -309 -92
-319 0 -35 30 -62 85 -78 l54 -16 -18 -47 c-11 -26 -22 -73 -26 -105 l-7 -56
-151 114 c-83 63 -160 115 -172 115 -11 0 -135 -38 -275 -85 -269 -89 -290
-101 -290 -157 0 -35 39 -78 72 -78 13 0 124 34 247 75 123 41 229 71 235 67
7 -4 93 -68 191 -143 213 -160 404 -296 496 -350 59 -35 80 -42 200 -60 74
-11 184 -30 245 -42 l112 -22 198 -238 c109 -131 207 -240 218 -243 12 -2 268
13 571 34 l550 40 35 -28 c19 -15 271 -212 559 -439 l524 -411 149 0 c145 0
150 1 173 25 33 32 33 78 0 110 -23 24 -30 25 -145 25 l-122 0 -511 401 c-282
221 -516 405 -521 410 -5 5 6 25 27 48 44 49 72 102 88 167 7 27 13 50 14 52
1 1 90 -25 198 -58 108 -33 207 -60 220 -60 41 0 65 40 107 178 53 177 48 189
-98 232 -80 23 -80 22 -52 95 l10 25 38 -25 c49 -32 133 -50 193 -41 64 9 146
62 184 116 44 65 119 315 119 396 -1 143 -109 258 -256 271 -32 3 -58 7 -58 8
0 1 21 69 46 151 70 225 62 316 -36 414 -59 59 13 34 -1130 383 -261 80 -493
147 -515 150 -22 3 -59 1 -82 -3z m845 -391 c550 -168 750 -233 768 -250 50
-47 49 -80 -5 -261 -94 -307 -129 -420 -135 -425 -8 -9 -71 12 -70 23 1 5 38
129 83 276 45 146 81 273 81 282 0 8 -10 26 -22 40 -19 21 -96 48 -416 146
-217 66 -402 120 -412 120 -50 0 -67 -36 -152 -315 -45 -148 -83 -271 -84
-273 -1 -2 -155 44 -341 101 -316 97 -344 108 -406 152 l-66 48 24 46 c64 125
258 478 269 489 21 21 88 41 116 35 14 -3 360 -108 768 -234z m245 -325 c155
-47 285 -89 288 -92 7 -7 -123 -437 -135 -449 -5 -5 -575 164 -597 178 -7 4
14 87 56 225 37 120 69 223 72 227 3 5 12 6 20 3 8 -3 141 -45 296 -92z
m-1950 -24 c169 -37 310 -69 313 -72 8 -9 -32 -132 -44 -136 -5 -1 -126 33
-268 76 -143 44 -307 94 -366 112 -60 18 -108 36 -108 40 0 13 38 41 66 50 36
10 37 10 407 -70z m-154 -251 c202 -62 369 -115 373 -118 6 -5 -97 -368 -107
-379 -2 -2 -20 1 -40 8 -28 9 -41 22 -61 62 -96 190 -347 268 -533 167 -50
-26 -58 -28 -93 -17 -26 8 -37 16 -34 25 3 8 13 39 22 71 9 31 19 60 23 65 4
4 38 -4 75 -18 38 -14 70 -24 72 -22 10 10 52 147 46 150 -4 3 -37 14 -74 26
-38 13 -68 28 -68 34 0 26 13 57 23 57 6 0 175 -50 376 -111z m757 17 c1 -1
-24 -86 -57 -191 -32 -104 -59 -202 -59 -216 0 -56 18 -64 362 -169 350 -107
359 -109 392 -58 8 13 39 106 70 207 31 102 58 186 60 188 4 4 897 -267 908
-276 5 -5 -97 -366 -108 -379 -1 -2 -25 3 -52 12 -45 13 -53 13 -84 -2 -29
-15 -36 -26 -58 -99 -13 -46 -27 -83 -30 -83 -3 0 -16 20 -29 45 -35 66 -129
149 -198 175 -115 44 -243 35 -348 -24 l-40 -23 -528 163 c-291 89 -531 164
-533 167 -3 3 156 540 191 645 3 9 26 -2 72 -34 38 -26 69 -48 69 -48z m402
-122 c112 -34 205 -64 207 -66 2 -2 -4 -31 -14 -63 -11 -33 -31 -99 -46 -147
-16 -54 -31 -88 -40 -88 -13 0 -437 129 -443 135 -3 3 27 104 79 273 9 28 14
32 32 26 12 -4 113 -36 225 -70z m1688 -195 c49 -46 50 -79 4 -229 -23 -74
-46 -143 -51 -153 -14 -25 -69 -57 -97 -57 -38 0 -92 30 -107 61 -22 41 -19
74 15 185 48 159 60 184 94 205 41 26 107 21 142 -12z m-2933 -96 c47 -19 110
-90 125 -141 37 -122 -21 -250 -135 -297 -20 -8 -61 -15 -92 -15 -195 0 -306
220 -191 378 66 92 178 120 293 75z m927 -448 c283 -87 518 -159 522 -161 3
-2 -3 -30 -14 -62 -40 -112 -22 -252 44 -351 16 -24 26 -46 23 -49 -4 -5 -618
-53 -621 -48 -22 32 -381 455 -392 463 -10 6 -98 25 -197 43 -226 40 -216 37
-177 60 80 49 161 168 177 260 l6 37 57 -17 c31 -10 289 -89 572 -175z m1008
-152 c153 -94 150 -319 -6 -410 -39 -24 -58 -28 -118 -28 -61 0 -77 4 -119 30
-94 58 -137 163 -110 267 39 153 218 225 353 141z m550 -75 l104 -32 -6 -30
c-4 -17 -10 -34 -14 -38 -8 -8 -200 48 -216 62 -11 11 3 70 17 70 6 0 58 -14
115 -32z"/>
<path d="M2716 3998 c-34 -30 -226 -388 -226 -420 0 -53 24 -65 275 -143 132
-41 250 -75 263 -75 58 0 62 8 142 269 55 181 60 219 30 246 -18 16 -413 145
-445 145 -8 0 -25 -10 -39 -22z m210 -194 c63 -19 114 -39 114 -43 0 -8 -61
-214 -65 -219 -2 -3 -276 78 -283 84 -7 5 106 214 115 214 3 0 56 -16 119 -36z"/>
<path d="M1423 2740 c-34 -14 -56 -54 -48 -90 19 -88 155 -74 155 16 0 29 -31
74 -50 74 -4 0 -14 2 -22 4 -7 3 -23 1 -35 -4z"/>
<path d="M3314 2137 c-20 -17 -27 -33 -27 -57 0 -24 7 -40 27 -57 34 -28 65
-29 100 -2 37 29 37 89 0 118 -35 27 -66 26 -100 -2z"/>
</g>
</svg>
