<?xml version="1.0" standalone="no"?>
<!DOCTYPE svg PUBLIC "-//W3C//DTD SVG 20010904//EN"
 "http://www.w3.org/TR/2001/REC-SVG-20010904/DTD/svg10.dtd">
<svg version="1.0" xmlns="http://www.w3.org/2000/svg"
 width="512.000000pt" height="512.000000pt" viewBox="0 0 512.000000 512.000000"
 preserveAspectRatio="xMidYMid meet">

<g transform="translate(0.000000,512.000000) scale(0.100000,-0.100000)"
fill="#000000" stroke="none">
<path d="M464 4939 c-17 -19 -19 -41 -22 -210 l-3 -189 30 -30 29 -30 435 0
435 0 15 -37 c8 -21 40 -98 70 -170 l55 -133 -124 -132 -123 -133 -323 -5
-323 -5 -57 -28 c-61 -30 -105 -74 -140 -140 -22 -40 -23 -53 -26 -340 -3
-332 1 -370 53 -475 44 -86 100 -150 176 -201 80 -54 156 -76 366 -106 94 -13
191 -32 214 -42 24 -9 113 -69 199 -133 196 -146 195 -145 284 -175 58 -19 95
-25 165 -25 l90 0 5 -43 c7 -50 36 -380 36 -406 0 -16 -12 -19 -108 -23 -144
-7 -173 -21 -292 -142 l-95 -96 -57 0 -58 0 0 298 c0 325 -4 359 -56 434 -37
53 -100 94 -170 113 -85 22 -833 22 -918 0 -111 -29 -193 -112 -216 -218 -8
-37 -10 -303 -8 -897 l3 -845 23 -46 c30 -61 86 -116 147 -145 l50 -24 460 0
460 0 51 24 c61 28 115 82 146 145 22 44 23 56 26 363 l3 316 142 4 c133 3
145 5 187 30 25 15 83 65 130 112 l85 86 62 0 62 0 32 -67 c22 -47 54 -90 103
-139 114 -115 233 -164 394 -164 109 0 209 28 295 84 72 46 160 144 198 221
l32 65 56 0 56 0 85 -86 c47 -47 105 -97 130 -112 42 -25 54 -27 187 -30 l142
-4 3 -316 c3 -306 4 -319 26 -363 30 -61 86 -116 147 -145 l50 -24 460 0 460
0 51 24 c61 28 115 82 146 145 l23 46 3 845 c2 594 0 860 -8 897 -14 66 -61
136 -116 173 -83 58 -118 61 -586 57 -322 -2 -432 -6 -460 -16 -66 -25 -130
-82 -163 -146 l-30 -59 -3 -318 -3 -318 -57 0 -57 0 -95 96 c-118 120 -148
135 -287 142 -77 4 -103 8 -103 18 0 19 28 337 35 402 l6 52 85 0 c65 0 104 6
160 25 89 30 88 29 284 175 86 64 175 124 199 133 23 10 120 29 214 42 210 30
286 52 366 106 76 51 132 115 176 201 52 105 56 143 53 475 l-3 298 -30 54
c-54 98 -138 148 -267 158 -76 6 -77 5 -107 -25 -36 -35 -39 -59 -11 -94 17
-22 29 -26 93 -30 88 -6 137 -31 161 -83 15 -31 17 -72 14 -328 l-3 -292 -28
-57 c-69 -140 -165 -196 -392 -228 -296 -41 -302 -43 -524 -210 -91 -68 -185
-132 -210 -143 -32 -14 -74 -22 -137 -25 l-91 -4 -6 55 c-11 111 -70 197 -165
244 l-57 28 -405 0 c-391 0 -407 -1 -451 -21 -100 -46 -165 -138 -176 -249
l-6 -57 -91 4 c-118 6 -151 21 -323 151 -240 182 -248 185 -515 222 -144 21
-196 32 -245 55 -77 35 -141 98 -179 176 l-29 59 -3 292 c-3 329 -1 343 67
385 l36 23 1708 5 c1677 5 1709 5 1723 24 20 27 17 69 -5 97 -17 21 -30 24
-115 29 l-97 5 -123 133 -124 132 55 133 c30 72 62 149 70 170 l15 37 434 0
433 0 28 24 28 24 0 195 c0 178 -2 197 -19 216 -19 21 -23 21 -550 21 -512 0
-533 -1 -576 -21 -54 -24 -115 -81 -140 -129 -10 -19 -52 -119 -95 -222 -48
-116 -83 -188 -91 -188 -11 0 -14 29 -14 149 0 112 -4 162 -17 201 -20 61 -87
141 -147 173 -40 22 -47 22 -466 22 -419 0 -426 0 -466 -22 -60 -32 -127 -112
-147 -173 -13 -39 -17 -89 -17 -201 0 -120 -3 -149 -14 -149 -8 0 -43 72 -91
188 -43 103 -85 203 -95 222 -25 48 -86 105 -140 129 -43 20 -64 21 -576 21
-527 0 -531 0 -550 -21z m736 -219 l0 -90 -302 2 -303 3 -3 88 -3 87 306 0
305 0 0 -90z m347 70 c43 -26 42 -24 137 -255 l83 -200 -46 -25 c-25 -14 -57
-33 -72 -43 l-25 -17 -68 168 c-37 92 -77 177 -89 190 -16 17 -32 22 -69 22
l-48 0 0 90 0 90 83 0 c64 0 89 -4 114 -20z m2223 -70 l0 -90 -48 0 c-37 0
-53 -5 -69 -22 -12 -13 -52 -98 -89 -190 l-68 -168 -25 17 c-15 10 -47 29 -72
43 l-46 25 83 200 c45 110 87 208 93 218 26 40 72 57 159 57 l82 0 0 -90z
m758 3 l-3 -88 -302 -3 -303 -2 0 90 0 90 305 0 306 0 -3 -87z m-1557 54 c59
-39 69 -73 69 -234 l0 -143 -220 0 -221 0 -24 -25 c-31 -30 -32 -71 -3 -102
21 -23 23 -23 272 -23 292 0 349 -9 475 -71 73 -36 99 -57 207 -168 68 -69
124 -129 124 -133 0 -5 -491 -8 -1091 -8 -656 0 -1089 4 -1087 9 2 5 53 61
113 124 125 129 189 175 302 213 69 24 99 28 251 33 169 6 174 7 194 31 24 30
18 77 -13 103 -17 14 -41 17 -130 17 l-109 0 0 143 c0 161 10 195 69 234 34
23 36 23 411 23 375 0 377 0 411 -23z m-15 -2263 c45 -22 76 -66 82 -119 l4
-44 -280 -3 c-259 -3 -282 -4 -301 -22 -27 -25 -28 -79 -1 -106 19 -19 33 -20
300 -20 l281 0 -6 -47 c-3 -27 -19 -205 -35 -398 -17 -192 -34 -376 -40 -408
-20 -121 -113 -241 -228 -295 -51 -24 -69 -27 -167 -27 -98 0 -116 3 -167 27
-99 46 -175 130 -213 238 -16 43 -97 885 -88 903 2 4 26 7 52 7 57 0 84 23 84
72 0 48 -41 78 -105 78 l-51 0 5 44 c6 53 36 98 80 119 29 14 82 17 396 17
315 0 369 -2 398 -16z m-1809 -338 c51 -31 74 -84 71 -162 l-3 -67 -94 -52
c-52 -29 -100 -60 -108 -71 -31 -43 4 -114 56 -114 14 0 54 16 88 34 l63 34 0
-103 0 -103 -87 -48 c-109 -58 -133 -79 -133 -116 0 -34 40 -78 70 -78 12 0
51 16 86 36 l64 36 0 -104 0 -103 -102 -56 c-75 -42 -106 -64 -112 -83 -14
-38 3 -77 40 -92 28 -12 37 -10 95 19 35 17 68 33 72 35 4 2 6 -43 5 -99 l-3
-104 -95 -52 c-52 -29 -100 -60 -107 -70 -32 -43 4 -113 59 -113 16 0 52 14
81 30 30 17 57 30 60 30 4 0 7 -47 7 -105 0 -116 -11 -155 -55 -195 l-27 -25
-442 -3 -442 -3 -35 23 c-55 38 -69 77 -69 201 0 59 3 107 7 107 3 0 30 -14
60 -30 29 -16 65 -30 80 -30 56 0 93 69 60 114 -7 10 -56 41 -108 70 l-94 51
-3 103 c-1 56 0 102 3 102 3 0 30 -14 61 -31 66 -37 111 -40 136 -8 23 28 23
74 0 97 -11 11 -60 41 -110 68 l-92 49 0 103 0 104 64 -36 c35 -20 74 -36 86
-36 30 0 70 44 70 78 0 37 -25 59 -132 117 l-88 47 0 103 0 103 63 -34 c73
-39 102 -42 134 -12 24 23 30 57 13 88 -6 10 -55 44 -110 75 l-100 56 0 65 c0
91 38 153 106 174 16 5 216 8 444 7 389 -2 417 -3 447 -21z m3750 -2 c56 -42
74 -81 71 -158 l-3 -69 -94 -52 c-52 -29 -100 -60 -108 -71 -31 -43 4 -114 56
-114 14 0 54 16 89 34 l62 34 0 -103 0 -103 -87 -48 c-109 -58 -133 -79 -133
-116 0 -34 40 -78 70 -78 12 0 51 16 86 36 l64 36 0 -104 0 -103 -92 -50 c-51
-27 -100 -58 -110 -67 -23 -23 -23 -70 0 -97 25 -32 70 -29 136 8 31 17 58 31
61 31 3 0 4 -46 3 -102 l-3 -103 -95 -52 c-52 -29 -100 -60 -107 -70 -32 -43
4 -113 59 -113 16 0 52 14 81 30 30 17 57 30 60 30 4 0 7 -47 7 -105 0 -116
-11 -155 -55 -195 l-27 -25 -442 -3 -442 -3 -35 23 c-55 38 -69 77 -69 201 0
59 3 107 7 107 3 0 30 -14 60 -30 29 -16 65 -30 80 -30 56 0 93 69 60 114 -7
10 -56 41 -108 70 l-94 51 -3 104 c-1 56 1 101 5 99 4 -2 37 -18 72 -35 58
-29 67 -31 95 -19 35 14 52 50 42 89 -5 21 -29 39 -111 84 l-105 58 0 103 0
104 64 -36 c35 -20 74 -36 86 -36 30 0 70 44 70 78 0 37 -25 59 -132 117 l-88
47 0 103 0 103 63 -34 c73 -39 102 -42 134 -12 24 23 30 57 13 88 -6 10 -55
44 -110 75 l-100 56 0 67 c0 93 34 149 105 171 17 6 208 9 447 8 406 -2 417
-3 445 -23z m-2904 -601 c3 -5 8 -47 12 -95 l7 -88 -79 0 -78 0 -100 -101
c-55 -55 -112 -107 -127 -115 -19 -10 -62 -14 -143 -14 l-115 0 0 89 0 89 90
4 90 3 107 107 c60 59 119 112 133 117 29 11 197 14 203 4z m1334 -4 c15 -5
76 -58 136 -117 l107 -107 90 -3 90 -4 0 -89 0 -89 -115 0 c-81 0 -124 4 -143
14 -15 8 -72 60 -127 115 l-100 101 -73 0 -74 0 7 88 c4 48 9 90 12 95 6 11
158 8 190 -4z"/>
<path d="M2512 1719 c-177 -33 -252 -251 -134 -389 50 -59 103 -84 182 -84
178 0 291 178 216 339 -47 102 -151 155 -264 134z m113 -174 c33 -32 33 -84 1
-122 -19 -22 -32 -28 -66 -28 -34 0 -47 6 -66 28 -53 62 -15 147 66 147 30 0
47 -6 65 -25z"/>
<path d="M706 3559 c-26 -20 -26 -21 -26 -167 l0 -146 186 -180 c103 -100 196
-186 208 -193 15 -9 101 -12 302 -13 270 0 282 1 308 21 l26 20 0 319 0 319
-26 20 c-26 21 -36 21 -489 21 -453 0 -463 0 -489 -21z m854 -339 l0 -210
-212 0 -213 0 -152 152 -153 153 0 57 0 58 365 0 365 0 0 -210z"/>
<path d="M3436 3559 l-26 -20 0 -319 0 -319 26 -20 c26 -20 38 -21 308 -21
201 1 287 4 302 13 12 7 105 93 208 192 l186 181 0 146 c0 146 0 147 -26 167
-26 21 -36 21 -489 21 -453 0 -463 0 -489 -21z m854 -187 l0 -58 -152 -152
-153 -152 -212 0 -213 0 0 210 0 210 365 0 365 0 0 -58z"/>
<path d="M2104 3450 c-51 -20 -54 -37 -54 -287 0 -246 4 -273 47 -292 36 -16
51 -14 78 14 l25 24 0 249 c0 224 -2 252 -17 270 -22 25 -51 33 -79 22z"/>
<path d="M2391 3449 c-49 -19 -50 -28 -51 -290 0 -227 2 -249 19 -270 13 -17
29 -23 56 -23 27 0 43 6 56 23 17 21 19 44 19 266 0 134 -3 251 -6 260 -5 13
-55 47 -66 44 -2 0 -14 -5 -27 -10z"/>
<path d="M2675 3448 c-44 -24 -45 -31 -45 -289 0 -226 2 -249 19 -270 26 -32
86 -32 112 0 17 21 19 44 19 262 0 260 -4 281 -53 299 -16 5 -30 10 -31 10 -1
0 -10 -6 -21 -12z"/>
<path d="M2963 3450 c-40 -16 -43 -39 -43 -295 l0 -246 25 -24 c27 -28 42 -30
78 -14 43 19 47 46 47 294 0 229 -1 234 -22 259 -27 29 -55 38 -85 26z"/>
</g>
</svg>
