<?xml version="1.0" standalone="no"?>
<!DOCTYPE svg PUBLIC "-//W3C//DTD SVG 20010904//EN"
 "http://www.w3.org/TR/2001/REC-SVG-20010904/DTD/svg10.dtd">
<svg version="1.0"
    xmlns="http://www.w3.org/2000/svg" width="500.000000pt" height="500.000000pt" viewBox="0 0 500.000000 500.000000" preserveAspectRatio="xMidYMid meet">

    <g transform="translate(0.000000,500.000000) scale(0.100000,-0.100000)" fill="#000000" stroke="none">
        <path d="M1085 3481 c-99 -24 -174 -102 -295 -306 -105 -176 -165 -234 -345
-335 -173 -97 -285 -189 -311 -255 -27 -72 -13 -130 44 -185 58 -56 115 -79
340 -135 209 -53 276 -82 371 -166 259 -226 315 -262 416 -263 33 -1 73 3 90
7 l29 8 -62 34 c-77 41 -107 64 -230 174 -100 89 -165 137 -217 160 -16 7
-113 35 -215 61 -102 26 -210 57 -240 69 -65 24 -124 70 -146 114 -21 39 -21
115 -1 154 28 54 132 137 289 230 231 138 246 152 373 363 80 133 133 201 185
239 22 16 36 31 33 35 -8 8 -69 6 -108 -3z"/>
        <path d="M1246 3360 c-68 -21 -113 -87 -202 -300 -75 -180 -101 -201 -389
-326 -60 -26 -105 -54 -137 -85 -43 -40 -48 -50 -48 -88 0 -84 73 -120 307
-147 145 -17 218 -34 265 -61 18 -10 70 -64 116 -118 160 -193 216 -238 293
-237 91 1 140 61 230 275 59 140 84 177 109 162 6 -3 10 -35 10 -69 0 -35 3
-78 7 -96 l6 -33 91 5 c52 3 108 12 131 22 84 35 134 112 135 202 l0 51 38
-18 c82 -41 200 -47 279 -14 42 18 120 91 142 133 l17 34 18 -39 17 -39 -70
-148 c-39 -82 -71 -150 -71 -153 0 -2 79 -2 176 -1 l175 3 80 185 c45 102 83
187 86 190 3 3 3 -35 1 -83 -3 -59 -1 -90 6 -92 6 -2 77 -5 158 -8 l147 -4 4
46 3 46 2 -47 2 -48 63 0 c34 0 106 -3 160 -7 l97 -6 0 37 0 38 33 -28 c90
-76 256 -90 364 -29 l43 24 0 -40 c0 -24 5 -39 13 -39 6 0 84 -9 171 -20 192
-24 265 -25 314 -5 100 42 153 159 118 264 -15 48 -15 51 4 84 26 43 29 150 6
194 -19 37 -69 81 -115 100 -74 31 -759 102 -1073 110 l-167 5 -4 -34 -4 -33
-1 38 -2 37 -77 0 c-43 0 -115 3 -160 7 l-83 6 0 -57 0 -56 -100 0 -101 0 -14
-32 -14 -33 -11 33 -12 32 -173 0 c-108 0 -175 -4 -177 -10 -2 -7 -23 -7 -62
1 -92 17 -189 -6 -248 -59 -20 -17 -19 -24 -21 78 -3 105 -60 161 -167 162
-119 0 -200 -111 -160 -218 14 -35 8 -39 -27 -21 -15 8 -46 18 -69 21 -46 8
-77 37 -181 166 -130 162 -213 215 -297 190z m797 -230 c80 -63 -1 -174 -102
-139 -36 13 -51 35 -51 76 0 71 94 109 153 63z m1354 -162 c-2 -13 -4 -5 -4
17 -1 22 1 32 4 23 2 -10 2 -28 0 -40z m-922 -24 c22 -11 53 -40 70 -63 24
-34 30 -54 33 -110 8 -145 -76 -231 -225 -231 -130 0 -212 82 -213 213 0 60
18 117 48 151 9 10 40 30 67 43 63 30 158 29 220 -3z m334 -66 c19 -51 37 -97
41 -101 4 -4 22 36 41 90 l35 98 93 3 c73 2 92 0 88 -10 -40 -98 -261 -595
-266 -601 -5 -4 -47 -7 -95 -5 l-87 3 52 107 52 107 -50 118 c-28 65 -67 155
-87 201 l-35 82 92 0 93 0 33 -92z m-735 20 c3 -29 11 -141 17 -249 10 -190
10 -199 -10 -243 -24 -55 -78 -85 -152 -86 l-46 0 -7 46 c-11 83 -9 92 22 96
27 3 27 4 27 78 0 41 -4 150 -9 243 l-8 167 80 0 81 0 5 -52z m-306 12 c51
-31 71 -88 84 -244 6 -75 9 -138 6 -142 -3 -3 -40 -8 -81 -11 l-74 -6 -6 44
c-3 24 -9 79 -13 123 -5 57 -12 84 -25 97 -25 25 -54 24 -80 -2 -18 -18 -21
-29 -15 -78 3 -31 8 -88 12 -127 l6 -71 -78 -6 c-44 -2 -82 -2 -85 2 -3 3 -14
96 -23 205 -14 162 -14 201 -4 208 7 4 39 8 71 9 31 1 63 2 69 3 7 1 15 -12
18 -29 6 -29 6 -29 17 -9 29 52 140 71 201 34z m-533 -57 c63 -32 101 -88 107
-159 l3 -38 -130 -17 c-71 -10 -131 -18 -132 -18 -8 -3 13 -33 29 -42 16 -9
26 -7 47 9 18 13 52 22 104 26 71 7 77 6 77 -11 0 -31 -43 -96 -79 -120 -78
-52 -185 -55 -255 -6 -117 82 -120 279 -6 358 65 45 166 52 235 18z m2152
-230 c-3 -10 -5 -2 -5 17 0 19 2 27 5 18 2 -10 2 -26 0 -35z"/>
        <path d="M2326 2811 c-36 -40 -12 -131 34 -131 49 0 71 104 28 134 -29 21 -41
20 -62 -3z"/>
        <path d="M1087 2733 c-18 -17 -5 -33 26 -33 38 0 62 13 53 29 -8 12 -68 15
-79 4z"/>
    </g>
</svg>
